<mxfile host="app.diagrams.net" modified="2023-11-22T20:06:46.204Z" agent="Mozilla/5.0 (Macintosh; Intel Mac OS X 10_15_7) AppleWebKit/537.36 (KHTML, like Gecko) Chrome/119.0.0.0 Safari/537.36" etag="GNoo6DoxxrVegNJtfrOs" version="22.1.3" type="device">
  <diagram name="Page-1" id="L8D-6fee6ZNkzh_6pX5-">
    <mxGraphModel dx="1194" dy="760" grid="1" gridSize="10" guides="1" tooltips="1" connect="1" arrows="1" fold="1" page="1" pageScale="1" pageWidth="850" pageHeight="1100" math="0" shadow="0">
      <root>
        <mxCell id="0" />
        <mxCell id="1" parent="0" />
        <mxCell id="95dfW2U9D8jgeMzbNa6m-11" value="" style="rounded=1;whiteSpace=wrap;html=1;fillOpacity=0;dashed=1;" vertex="1" parent="1">
          <mxGeometry x="220" y="230" width="1010" height="290" as="geometry" />
        </mxCell>
        <mxCell id="95dfW2U9D8jgeMzbNa6m-13" value="Execution" style="text;html=1;strokeColor=none;fillColor=none;align=left;verticalAlign=middle;whiteSpace=wrap;rounded=0;" vertex="1" parent="1">
          <mxGeometry x="220" y="200" width="60" height="30" as="geometry" />
        </mxCell>
        <mxCell id="95dfW2U9D8jgeMzbNa6m-14" value="" style="group" vertex="1" connectable="0" parent="1">
          <mxGeometry x="280" y="50" width="580" height="110" as="geometry" />
        </mxCell>
        <mxCell id="95dfW2U9D8jgeMzbNa6m-1" value="" style="rounded=1;whiteSpace=wrap;html=1;fillColor=#f8cecc;strokeColor=#b85450;" vertex="1" parent="95dfW2U9D8jgeMzbNa6m-14">
          <mxGeometry y="30" width="580" height="80" as="geometry" />
        </mxCell>
        <mxCell id="95dfW2U9D8jgeMzbNa6m-3" value="App Development" style="rounded=1;whiteSpace=wrap;html=1;" vertex="1" parent="95dfW2U9D8jgeMzbNa6m-14">
          <mxGeometry x="25" y="47.5" width="120" height="45" as="geometry" />
        </mxCell>
        <mxCell id="95dfW2U9D8jgeMzbNa6m-4" value="ML Tasks" style="rounded=1;whiteSpace=wrap;html=1;" vertex="1" parent="95dfW2U9D8jgeMzbNa6m-14">
          <mxGeometry x="205" y="47.5" width="120" height="45" as="geometry" />
        </mxCell>
        <mxCell id="95dfW2U9D8jgeMzbNa6m-5" value="Respond to user text queries, view submission results" style="rounded=1;whiteSpace=wrap;html=1;" vertex="1" parent="95dfW2U9D8jgeMzbNa6m-14">
          <mxGeometry x="380" y="47.5" width="180" height="45" as="geometry" />
        </mxCell>
        <mxCell id="95dfW2U9D8jgeMzbNa6m-12" value="Process" style="text;html=1;strokeColor=none;fillColor=none;align=left;verticalAlign=middle;whiteSpace=wrap;rounded=0;" vertex="1" parent="95dfW2U9D8jgeMzbNa6m-14">
          <mxGeometry x="10" width="60" height="30" as="geometry" />
        </mxCell>
        <mxCell id="95dfW2U9D8jgeMzbNa6m-17" value="" style="group" vertex="1" connectable="0" parent="1">
          <mxGeometry x="330" y="270" width="140" height="90" as="geometry" />
        </mxCell>
        <mxCell id="95dfW2U9D8jgeMzbNa6m-6" value="" style="rounded=1;whiteSpace=wrap;html=1;fillColor=#fff2cc;strokeColor=#d6b656;" vertex="1" parent="95dfW2U9D8jgeMzbNa6m-17">
          <mxGeometry y="30" width="140" height="60" as="geometry" />
        </mxCell>
        <mxCell id="95dfW2U9D8jgeMzbNa6m-15" value="Notebooks" style="rounded=1;whiteSpace=wrap;html=1;" vertex="1" parent="95dfW2U9D8jgeMzbNa6m-17">
          <mxGeometry x="25" y="45" width="85" height="30" as="geometry" />
        </mxCell>
        <mxCell id="95dfW2U9D8jgeMzbNa6m-16" value="Colab" style="text;html=1;strokeColor=none;fillColor=none;align=center;verticalAlign=middle;whiteSpace=wrap;rounded=0;" vertex="1" parent="95dfW2U9D8jgeMzbNa6m-17">
          <mxGeometry width="60" height="30" as="geometry" />
        </mxCell>
        <mxCell id="95dfW2U9D8jgeMzbNa6m-26" value="" style="group" vertex="1" connectable="0" parent="1">
          <mxGeometry x="500" y="250" width="260" height="240" as="geometry" />
        </mxCell>
        <mxCell id="95dfW2U9D8jgeMzbNa6m-7" value="" style="rounded=1;whiteSpace=wrap;html=1;fillColor=#dae8fc;strokeColor=#6c8ebf;" vertex="1" parent="95dfW2U9D8jgeMzbNa6m-26">
          <mxGeometry y="30" width="260" height="210" as="geometry" />
        </mxCell>
        <mxCell id="95dfW2U9D8jgeMzbNa6m-8" value="Leetcode Problem Data Scraper" style="rounded=1;whiteSpace=wrap;html=1;" vertex="1" parent="95dfW2U9D8jgeMzbNa6m-26">
          <mxGeometry x="80" y="40" width="120" height="40" as="geometry" />
        </mxCell>
        <mxCell id="95dfW2U9D8jgeMzbNa6m-18" value="ML Pipeline" style="text;html=1;strokeColor=none;fillColor=none;align=center;verticalAlign=middle;whiteSpace=wrap;rounded=0;" vertex="1" parent="95dfW2U9D8jgeMzbNa6m-26">
          <mxGeometry width="80" height="30" as="geometry" />
        </mxCell>
        <mxCell id="95dfW2U9D8jgeMzbNa6m-22" value="Data Cleaning and Embedding Processor" style="rounded=1;whiteSpace=wrap;html=1;" vertex="1" parent="95dfW2U9D8jgeMzbNa6m-26">
          <mxGeometry x="60" y="90" width="160" height="40" as="geometry" />
        </mxCell>
        <mxCell id="95dfW2U9D8jgeMzbNa6m-24" value="Model Training, Fine-tuning, Quantization, and Evaluation" style="rounded=1;whiteSpace=wrap;html=1;" vertex="1" parent="95dfW2U9D8jgeMzbNa6m-26">
          <mxGeometry x="10" y="140" width="240" height="40" as="geometry" />
        </mxCell>
        <mxCell id="95dfW2U9D8jgeMzbNa6m-25" value="Vertex AI Model Deployment" style="rounded=1;whiteSpace=wrap;html=1;" vertex="1" parent="95dfW2U9D8jgeMzbNa6m-26">
          <mxGeometry x="80" y="190" width="120" height="40" as="geometry" />
        </mxCell>
        <mxCell id="95dfW2U9D8jgeMzbNa6m-29" value="" style="group" vertex="1" connectable="0" parent="1">
          <mxGeometry x="1020" y="320" width="180" height="110" as="geometry" />
        </mxCell>
        <mxCell id="95dfW2U9D8jgeMzbNa6m-27" value="" style="rounded=1;whiteSpace=wrap;html=1;fillColor=#d5e8d4;strokeColor=#82b366;" vertex="1" parent="95dfW2U9D8jgeMzbNa6m-29">
          <mxGeometry y="30" width="180" height="80" as="geometry" />
        </mxCell>
        <mxCell id="95dfW2U9D8jgeMzbNa6m-10" value="OpenAI gpt-3.5-turbo" style="rounded=1;whiteSpace=wrap;html=1;" vertex="1" parent="95dfW2U9D8jgeMzbNa6m-29">
          <mxGeometry x="25" y="50" width="130" height="40" as="geometry" />
        </mxCell>
        <mxCell id="95dfW2U9D8jgeMzbNa6m-28" value="External APIs" style="text;html=1;strokeColor=none;fillColor=none;align=center;verticalAlign=middle;whiteSpace=wrap;rounded=0;" vertex="1" parent="95dfW2U9D8jgeMzbNa6m-29">
          <mxGeometry width="80" height="30" as="geometry" />
        </mxCell>
        <mxCell id="95dfW2U9D8jgeMzbNa6m-30" value="" style="group" vertex="1" connectable="0" parent="1">
          <mxGeometry x="800" y="250" width="170" height="90" as="geometry" />
        </mxCell>
        <mxCell id="95dfW2U9D8jgeMzbNa6m-20" value="" style="rounded=1;whiteSpace=wrap;html=1;fillColor=#bac8d3;strokeColor=#23445d;" vertex="1" parent="95dfW2U9D8jgeMzbNa6m-30">
          <mxGeometry y="30" width="170" height="60" as="geometry" />
        </mxCell>
        <mxCell id="95dfW2U9D8jgeMzbNa6m-21" value="Frontend" style="text;html=1;strokeColor=none;fillColor=none;align=center;verticalAlign=middle;whiteSpace=wrap;rounded=0;" vertex="1" parent="95dfW2U9D8jgeMzbNa6m-30">
          <mxGeometry width="80" height="30" as="geometry" />
        </mxCell>
        <mxCell id="95dfW2U9D8jgeMzbNa6m-31" value="Mockmate App" style="rounded=1;whiteSpace=wrap;html=1;" vertex="1" parent="95dfW2U9D8jgeMzbNa6m-30">
          <mxGeometry x="20" y="40" width="130" height="40" as="geometry" />
        </mxCell>
        <mxCell id="95dfW2U9D8jgeMzbNa6m-33" value="" style="group" vertex="1" connectable="0" parent="1">
          <mxGeometry x="800" y="370" width="190" height="90" as="geometry" />
        </mxCell>
        <mxCell id="95dfW2U9D8jgeMzbNa6m-9" value="" style="rounded=1;whiteSpace=wrap;html=1;fillColor=#b1ddf0;strokeColor=#10739e;" vertex="1" parent="95dfW2U9D8jgeMzbNa6m-33">
          <mxGeometry y="30" width="190" height="60" as="geometry" />
        </mxCell>
        <mxCell id="95dfW2U9D8jgeMzbNa6m-23" value="Backend" style="text;html=1;strokeColor=none;fillColor=none;align=center;verticalAlign=middle;whiteSpace=wrap;rounded=0;" vertex="1" parent="95dfW2U9D8jgeMzbNa6m-33">
          <mxGeometry width="80" height="30" as="geometry" />
        </mxCell>
        <mxCell id="95dfW2U9D8jgeMzbNa6m-32" value="API Server (see Tech Arch for details)" style="rounded=1;whiteSpace=wrap;html=1;" vertex="1" parent="95dfW2U9D8jgeMzbNa6m-33">
          <mxGeometry x="27.5" y="40" width="135" height="40" as="geometry" />
        </mxCell>
        <mxCell id="95dfW2U9D8jgeMzbNa6m-39" style="edgeStyle=orthogonalEdgeStyle;rounded=0;orthogonalLoop=1;jettySize=auto;html=1;exitX=0.5;exitY=1;exitDx=0;exitDy=0;entryX=0.5;entryY=0;entryDx=0;entryDy=0;" edge="1" parent="1" source="95dfW2U9D8jgeMzbNa6m-5" target="95dfW2U9D8jgeMzbNa6m-21">
          <mxGeometry relative="1" as="geometry" />
        </mxCell>
        <mxCell id="95dfW2U9D8jgeMzbNa6m-42" style="edgeStyle=orthogonalEdgeStyle;rounded=0;orthogonalLoop=1;jettySize=auto;html=1;exitX=0.25;exitY=1;exitDx=0;exitDy=0;entryX=0.5;entryY=0;entryDx=0;entryDy=0;" edge="1" parent="1" source="95dfW2U9D8jgeMzbNa6m-4" target="95dfW2U9D8jgeMzbNa6m-16">
          <mxGeometry relative="1" as="geometry" />
        </mxCell>
        <mxCell id="95dfW2U9D8jgeMzbNa6m-43" style="edgeStyle=orthogonalEdgeStyle;rounded=0;orthogonalLoop=1;jettySize=auto;html=1;exitX=0.75;exitY=1;exitDx=0;exitDy=0;" edge="1" parent="1" source="95dfW2U9D8jgeMzbNa6m-4" target="95dfW2U9D8jgeMzbNa6m-18">
          <mxGeometry relative="1" as="geometry" />
        </mxCell>
        <mxCell id="95dfW2U9D8jgeMzbNa6m-44" value="" style="group" vertex="1" connectable="0" parent="1">
          <mxGeometry x="280" y="540" width="780" height="140" as="geometry" />
        </mxCell>
        <mxCell id="95dfW2U9D8jgeMzbNa6m-2" value="" style="rounded=1;whiteSpace=wrap;html=1;fillColor=#f5f5f5;fontColor=#333333;strokeColor=#666666;" vertex="1" parent="95dfW2U9D8jgeMzbNa6m-44">
          <mxGeometry y="30" width="780" height="110" as="geometry" />
        </mxCell>
        <mxCell id="95dfW2U9D8jgeMzbNa6m-19" value="State" style="text;html=1;strokeColor=none;fillColor=none;align=left;verticalAlign=middle;whiteSpace=wrap;rounded=0;" vertex="1" parent="95dfW2U9D8jgeMzbNa6m-44">
          <mxGeometry x="10" width="60" height="30" as="geometry" />
        </mxCell>
        <mxCell id="95dfW2U9D8jgeMzbNa6m-34" value="Source Control (Git)" style="rounded=1;whiteSpace=wrap;html=1;" vertex="1" parent="95dfW2U9D8jgeMzbNa6m-44">
          <mxGeometry x="50" y="62.5" width="120" height="45" as="geometry" />
        </mxCell>
        <mxCell id="95dfW2U9D8jgeMzbNa6m-35" value="Data Storage and Version Control (DVC)" style="rounded=1;whiteSpace=wrap;html=1;" vertex="1" parent="95dfW2U9D8jgeMzbNa6m-44">
          <mxGeometry x="200" y="62.5" width="190" height="45" as="geometry" />
        </mxCell>
        <mxCell id="95dfW2U9D8jgeMzbNa6m-36" value="Container Registry (GCP)" style="rounded=1;whiteSpace=wrap;html=1;" vertex="1" parent="95dfW2U9D8jgeMzbNa6m-44">
          <mxGeometry x="420" y="62.5" width="160" height="45" as="geometry" />
        </mxCell>
        <mxCell id="95dfW2U9D8jgeMzbNa6m-37" value="Pre-trained Model Storage (GCP)" style="rounded=1;whiteSpace=wrap;html=1;" vertex="1" parent="95dfW2U9D8jgeMzbNa6m-44">
          <mxGeometry x="590" y="62.5" width="140" height="45" as="geometry" />
        </mxCell>
        <mxCell id="95dfW2U9D8jgeMzbNa6m-57" value="HTTPS" style="text;html=1;strokeColor=none;fillColor=none;align=center;verticalAlign=middle;whiteSpace=wrap;rounded=0;" vertex="1" parent="95dfW2U9D8jgeMzbNa6m-44">
          <mxGeometry x="390" y="-20" width="60" height="30" as="geometry" />
        </mxCell>
        <mxCell id="95dfW2U9D8jgeMzbNa6m-45" style="edgeStyle=orthogonalEdgeStyle;rounded=0;orthogonalLoop=1;jettySize=auto;html=1;exitX=0.25;exitY=1;exitDx=0;exitDy=0;entryX=0.5;entryY=0;entryDx=0;entryDy=0;endArrow=classicThin;endFill=1;strokeColor=default;startArrow=blockThin;startFill=1;" edge="1" parent="1" source="95dfW2U9D8jgeMzbNa6m-3" target="95dfW2U9D8jgeMzbNa6m-34">
          <mxGeometry relative="1" as="geometry">
            <Array as="points">
              <mxPoint x="335" y="180" />
              <mxPoint x="290" y="180" />
              <mxPoint x="290" y="480" />
              <mxPoint x="390" y="480" />
            </Array>
          </mxGeometry>
        </mxCell>
        <mxCell id="95dfW2U9D8jgeMzbNa6m-49" style="edgeStyle=orthogonalEdgeStyle;rounded=0;orthogonalLoop=1;jettySize=auto;html=1;entryX=0.25;entryY=0;entryDx=0;entryDy=0;startArrow=classic;startFill=1;" edge="1" parent="1" source="95dfW2U9D8jgeMzbNa6m-6" target="95dfW2U9D8jgeMzbNa6m-2">
          <mxGeometry relative="1" as="geometry">
            <Array as="points">
              <mxPoint x="400" y="430" />
              <mxPoint x="475" y="430" />
            </Array>
          </mxGeometry>
        </mxCell>
        <mxCell id="95dfW2U9D8jgeMzbNa6m-50" style="edgeStyle=orthogonalEdgeStyle;rounded=0;orthogonalLoop=1;jettySize=auto;html=1;startArrow=classic;startFill=1;" edge="1" parent="1" source="95dfW2U9D8jgeMzbNa6m-7" target="95dfW2U9D8jgeMzbNa6m-2">
          <mxGeometry relative="1" as="geometry" />
        </mxCell>
        <mxCell id="95dfW2U9D8jgeMzbNa6m-51" style="edgeStyle=orthogonalEdgeStyle;rounded=0;orthogonalLoop=1;jettySize=auto;html=1;entryX=1;entryY=0.5;entryDx=0;entryDy=0;startArrow=classic;startFill=1;" edge="1" parent="1" source="95dfW2U9D8jgeMzbNa6m-9" target="95dfW2U9D8jgeMzbNa6m-7">
          <mxGeometry relative="1" as="geometry" />
        </mxCell>
        <mxCell id="95dfW2U9D8jgeMzbNa6m-53" style="edgeStyle=orthogonalEdgeStyle;rounded=0;orthogonalLoop=1;jettySize=auto;html=1;entryX=1;entryY=0.5;entryDx=0;entryDy=0;startArrow=classic;startFill=1;" edge="1" parent="1" source="95dfW2U9D8jgeMzbNa6m-27" target="95dfW2U9D8jgeMzbNa6m-9">
          <mxGeometry relative="1" as="geometry" />
        </mxCell>
        <mxCell id="95dfW2U9D8jgeMzbNa6m-55" style="edgeStyle=orthogonalEdgeStyle;rounded=0;orthogonalLoop=1;jettySize=auto;html=1;exitX=0.5;exitY=1;exitDx=0;exitDy=0;entryX=0.5;entryY=0;entryDx=0;entryDy=0;startArrow=classic;startFill=1;" edge="1" parent="1" source="95dfW2U9D8jgeMzbNa6m-20" target="95dfW2U9D8jgeMzbNa6m-9">
          <mxGeometry relative="1" as="geometry" />
        </mxCell>
        <mxCell id="95dfW2U9D8jgeMzbNa6m-56" style="edgeStyle=orthogonalEdgeStyle;rounded=0;orthogonalLoop=1;jettySize=auto;html=1;entryX=0.75;entryY=0;entryDx=0;entryDy=0;" edge="1" parent="1" source="95dfW2U9D8jgeMzbNa6m-9" target="95dfW2U9D8jgeMzbNa6m-2">
          <mxGeometry relative="1" as="geometry" />
        </mxCell>
        <mxCell id="95dfW2U9D8jgeMzbNa6m-58" value="HTTPS" style="text;html=1;strokeColor=none;fillColor=none;align=center;verticalAlign=middle;whiteSpace=wrap;rounded=0;" vertex="1" parent="1">
          <mxGeometry x="870" y="520" width="60" height="30" as="geometry" />
        </mxCell>
        <mxCell id="95dfW2U9D8jgeMzbNa6m-59" value="HTTPS" style="text;html=1;strokeColor=none;fillColor=none;align=center;verticalAlign=middle;whiteSpace=wrap;rounded=0;" vertex="1" parent="1">
          <mxGeometry x="760" y="355" width="60" height="30" as="geometry" />
        </mxCell>
        <mxCell id="95dfW2U9D8jgeMzbNa6m-60" value="HTTPS" style="text;html=1;strokeColor=none;fillColor=none;align=center;verticalAlign=middle;whiteSpace=wrap;rounded=0;" vertex="1" parent="1">
          <mxGeometry x="890" y="350" width="60" height="30" as="geometry" />
        </mxCell>
        <mxCell id="95dfW2U9D8jgeMzbNa6m-61" value="HTTPS" style="text;html=1;strokeColor=none;fillColor=none;align=center;verticalAlign=middle;whiteSpace=wrap;rounded=0;" vertex="1" parent="1">
          <mxGeometry x="1000" y="430" width="60" height="30" as="geometry" />
        </mxCell>
        <mxCell id="95dfW2U9D8jgeMzbNa6m-62" value="HTTPS" style="text;html=1;strokeColor=none;fillColor=none;align=center;verticalAlign=middle;whiteSpace=wrap;rounded=0;" vertex="1" parent="1">
          <mxGeometry x="410" y="400" width="60" height="30" as="geometry" />
        </mxCell>
        <mxCell id="95dfW2U9D8jgeMzbNa6m-63" value="HTTPS / SSH" style="text;html=1;strokeColor=none;fillColor=none;align=center;verticalAlign=middle;whiteSpace=wrap;rounded=0;" vertex="1" parent="1">
          <mxGeometry x="300" y="450" width="80" height="30" as="geometry" />
        </mxCell>
        <mxCell id="95dfW2U9D8jgeMzbNa6m-65" value="CLI / Automation / Developer Interaction" style="text;html=1;strokeColor=none;fillColor=none;align=center;verticalAlign=middle;whiteSpace=wrap;rounded=0;" vertex="1" parent="1">
          <mxGeometry x="570" y="190" width="140" height="30" as="geometry" />
        </mxCell>
        <mxCell id="95dfW2U9D8jgeMzbNa6m-66" value="Human Interaction" style="text;html=1;strokeColor=none;fillColor=none;align=center;verticalAlign=middle;whiteSpace=wrap;rounded=0;" vertex="1" parent="1">
          <mxGeometry x="750" y="170" width="140" height="30" as="geometry" />
        </mxCell>
        <mxCell id="95dfW2U9D8jgeMzbNa6m-67" value="Human Interaction" style="text;html=1;strokeColor=none;fillColor=none;align=center;verticalAlign=middle;whiteSpace=wrap;rounded=0;" vertex="1" parent="1">
          <mxGeometry x="360" y="170" width="155" height="30" as="geometry" />
        </mxCell>
      </root>
    </mxGraphModel>
  </diagram>
</mxfile>
